# xmcd CD database file
#
# Track frame offsets:
#	182
#	5752
#	19697
#	42615
#	65247
#	88097
#	108057
#	131370
#	154630
#	166840
#	182265
#	208127
#	228160
#	241172
#	266597
#	276650
#	299980
#	325445
#
# Disc length: 4610 seconds
#
# Revision: 1
# Processed by: cddbd v1.5.1PL2 Copyright (c) Steve Scherf et al.
# Submitted via: CDex 1.51
#
DISCID=08120012
DTITLE=Various Artist - Lucid Dreaming
DYEAR=1992
DGENRE=New Age
TTITLE0=Symbiosis - Song of the Peach Tree Spring
TTITLE1=Symbiosis - Salvador
TTITLE2=Earth Orchestra - Orient Ear
TTITLE3=James D'Angelo - Angels dancing with the Sun and Moon
TTITLE4=Ray Price and Philip Chambon - Courtship Bourree
TTITLE5=Mark Powell - The West Wind
TTITLE6=Lawence Ball - Fiery Spirals
TTITLE7=Mac Catley and Geoff Mann - Over the Edge
TTITLE8=Peter Watson - First Fruits
TTITLE9=Annie Locke - Resurgence
TTITLE10=Maloviere - A dream of the Emperor's concubine
TTITLE11=The Anti-Gravity League - Eskimo Nell
TTITLE12=Peter Watson - Emergence
TTITLE13=New Age Radio - Earth Pulse
TTITLE14=Annie Locke - As it will be
TTITLE15=Sea Horses - World of dust
TTITLE16=Woo - A Dream
TTITLE17=Mark Jenkins - Alpine Sunrise
EXTD=YEAR: 1992
EXTT0=
EXTT1=
EXTT2=
EXTT3=
EXTT4=
EXTT5=
EXTT6=
EXTT7=
EXTT8=
EXTT9=
EXTT10=
EXTT11=
EXTT12=
EXTT13=
EXTT14=
EXTT15=
EXTT16=
EXTT17=
PLAYORDER=
